<svg width="512" height="512" viewBox="0 0 512 512" fill="none" xmlns="http://www.w3.org/2000/svg">
<path d="M256 0C114.833 0 0 114.833 0 256C0 397.167 114.833 512 256 512C397.167 512 512 397.147 512 256C512 114.853 397.167 0 256 0ZM256 472.341C136.725 472.341 39.659 375.295 39.659 256C39.659 136.705 136.725 39.659 256 39.659C375.295 39.659 472.341 136.705 472.341 256C472.341 375.295 375.275 472.341 256 472.341Z" fill="white"/>
<path d="M368.235 202.837C361.116 194.528 348.584 193.557 340.275 200.676L255.008 285.745L169.939 200.676C162.205 192.982 149.713 192.982 141.979 200.676C134.285 208.41 134.285 220.902 141.979 228.636L241.127 327.784C248.861 335.478 261.353 335.478 269.087 327.784L368.235 228.636C374.601 221.219 374.601 210.253 368.235 202.837Z" fill="white"/>
</svg>
