<svg width="513" height="513" viewBox="0 0 513 513" fill="none" xmlns="http://www.w3.org/2000/svg">
<g clip-path="url(#clip0_66_28)">
<path d="M397.96 330.099C384.205 330.099 373.088 341.217 373.088 354.971V433.096C373.088 446.826 361.945 457.968 348.216 457.968H74.617C60.887 457.968 49.745 446.825 49.745 433.096V109.754C49.745 96.024 60.888 84.882 74.617 84.882H219.126C232.88 84.882 243.998 73.764 243.998 60.01C243.998 46.256 232.88 35.138 219.126 35.138H74.617C33.478 35.136 0 68.615 0 109.754V433.096C0 474.235 33.478 507.713 74.617 507.713H348.214C389.353 507.713 422.831 474.26 422.831 433.096V354.972C422.832 341.217 411.714 330.099 397.96 330.099Z" fill="white"/>
<path d="M484.193 31.977C466.136 13.92 442.556 4.81602 418.803 4.31902C393.806 3.77202 368.66 12.825 349.757 31.753L181.37 200.14C156.796 224.814 143.265 257.546 143.265 292.317V348.031C143.265 361.785 154.383 372.903 168.137 372.903H223.851C258.623 372.903 291.355 359.372 316.053 334.773L484.216 166.61C521.277 129.527 521.277 69.087 484.193 31.977ZM280.91 299.581C265.663 314.778 245.367 323.16 223.853 323.16H193.01V292.318C193.01 270.803 201.392 250.507 216.564 235.285L327.57 124.279L391.89 188.599L280.91 299.581ZM449.023 131.467L427.06 153.43L362.74 89.11L384.702 67.148C402.461 49.389 431.313 49.439 449.022 67.148C466.732 84.881 466.732 113.733 449.023 131.467Z" fill="white"/>
</g>
<defs>
<clipPath id="clip0_66_28">
<rect width="512.009" height="512.009" fill="white"/>
</clipPath>
</defs>
</svg>
