<svg width="512" height="512" viewBox="0 0 512 512" fill="none" xmlns="http://www.w3.org/2000/svg">
<path d="M469.333 85.333H426.666H362.666V21.333C362.667 9.557 353.131 0 341.333 0H170.667C158.87 0 149.334 9.557 149.334 21.333V85.333H85.334H42.667C30.87 85.333 21.334 94.89 21.334 106.666C21.334 118.442 30.869 128 42.667 128H64V448C64 483.285 92.715 512 128 512H384C419.285 512 448 483.285 448 448V128H469.333C481.13 128 490.666 118.443 490.666 106.667C490.666 94.891 481.131 85.333 469.333 85.333ZM192 42.667H320V85.334H192V42.667ZM405.333 448C405.333 459.755 395.776 469.333 384 469.333H128C116.224 469.333 106.667 459.754 106.667 448V128H170.667H341.334H405.334V448H405.333Z" fill="white"/>
<path d="M192 170.667C180.203 170.667 170.667 180.224 170.667 192V384C170.667 395.776 180.203 405.333 192 405.333C203.797 405.333 213.333 395.776 213.333 384V192C213.333 180.224 203.797 170.667 192 170.667Z" fill="white"/>
<path d="M320 170.667C308.203 170.667 298.667 180.224 298.667 192V384C298.667 395.776 308.203 405.333 320 405.333C331.797 405.333 341.333 395.776 341.333 384V192C341.333 180.224 331.797 170.667 320 170.667Z" fill="white"/>
</svg>
